<?xml version="1.0" encoding="utf-8"?>
<!-- Generator: Adobe Illustrator 21.0.0, SVG Export Plug-In . SVG Version: 6.00 Build 0)  -->
<svg version="1.1" id="Layer_1" xmlns="http://www.w3.org/2000/svg" xmlns:xlink="http://www.w3.org/1999/xlink" x="0px" y="0px"
	 viewBox="0 0 485 178" style="enable-background:new 0 0 485 178;" xml:space="preserve">
<style type="text/css">
	.st0{fill:#FFFFFF;}
	.st1{fill:none;stroke:#FFFFFF;stroke-width:1.5677;stroke-miterlimit:10;}
</style>
<g id="svg_5_1_">
	<path id="svg_6_1_" vector-effect="non-scaling-stroke" class="st0" d="M185.6,42.7c5.1-0.4,9.5,1.3,13,5.1
		c0.6,0.7,1.1,1.5,1.3,2.4c-0.3,1.6-1.2,2.1-2.8,1.6c-1.4-1.9-3.2-3.5-5.3-4.6c-2.3-0.6-4.7-0.7-7.1-0.5c-5.3,1.5-6.8,4.8-4.5,9.8
		c1.3,1.3,2.9,2.3,4.7,2.9c2,0.5,4,0.9,6,1.1c8.8,2.4,11.6,7.8,8.6,16.4c-2.1,3.2-5,5.1-8.8,5.6c-5.9,0.9-10.9-0.8-15-4.9
		c-0.8-0.9-1.3-1.9-1.5-3.1c0.3-1.4,1.1-1.9,2.5-1.6c0.4,0.2,0.8,0.4,1,0.8c2.2,3.6,5.4,5.4,9.7,5.3c3.4,0.2,6.3-1,8.5-3.4
		c1.9-3.7,1.3-7-1.7-9.7c-1.1-0.7-2.2-1.3-3.4-1.6c-3.4-0.4-6.6-1.2-9.7-2.5c-5.7-3.4-7.1-8.2-4.2-14.1
		C179.1,44.8,182,43.2,185.6,42.7z"/>
</g>
<g id="svg_7_1_">
	<path id="svg_8_1_" vector-effect="non-scaling-stroke" class="st0" d="M347.9,42.7c5.1-0.4,9.5,1.3,13,5.1
		c0.6,0.7,1.1,1.5,1.3,2.4c-0.3,1.6-1.2,2.1-2.8,1.6c-1.4-1.9-3.2-3.5-5.3-4.6c-2.3-0.6-4.7-0.7-7.1-0.5c-5.3,1.5-6.8,4.8-4.5,9.8
		c1.3,1.3,2.9,2.3,4.7,2.9c2,0.5,4,0.9,6,1.1c8.8,2.4,11.6,7.8,8.6,16.4c-2.1,3.2-5,5.1-8.8,5.6c-5.9,0.9-10.9-0.8-15-4.9
		c-0.8-0.9-1.3-1.9-1.5-3.1c0.3-1.4,1.1-1.9,2.5-1.6c0.4,0.2,0.8,0.4,1,0.8c2.2,3.6,5.4,5.4,9.7,5.3c3.4,0.2,6.3-1,8.5-3.4
		c1.9-3.7,1.3-7-1.7-9.7c-1.1-0.7-2.2-1.3-3.4-1.6c-3.4-0.4-6.6-1.2-9.7-2.5c-5.7-3.4-7.1-8.2-4.2-14.1
		C341.4,44.8,344.3,43.2,347.9,42.7z"/>
</g>
<g id="svg_9_1_">
	<path id="svg_10_1_" vector-effect="non-scaling-stroke" class="st0" d="M97.5,43.4c1.3-0.3,2.2,0.1,2.9,1.1
		c0.1,8.9,0.2,17.9,0.2,26.9c1.2,4.2,4,6.8,8.4,7.7c3.4,0.5,6.6,0,9.7-1.4c2.6-1.5,4.1-3.8,4.7-6.8c0.1-8.8,0.2-17.6,0.2-26.4
		c0.3-0.9,1-1.2,1.8-1.1c0.8-0.1,1.4,0.2,1.8,0.9c0.2,9,0.2,18.1,0,27.1c-1.4,6.4-5.3,10.2-11.8,11.4c-5.3,1-10.2-0.2-14.4-3.4
		c-2.4-2.1-3.8-4.8-4.2-7.9c-0.2-9-0.2-18.1,0-27.1C97,44.1,97.3,43.8,97.5,43.4z"/>
</g>
<g id="svg_13_1_">
	<path id="svg_14_1_" vector-effect="non-scaling-stroke" class="st0" d="M213.9,43.4c1.4-0.3,2.3,0.1,2.9,1.4
		c0.1,5.7,0.2,11.5,0.2,17.2c6.2-6.2,12.3-12.3,18.5-18.5c2.5-0.4,3.3,0.5,2.4,2.9c-4.6,4.6-9.3,9.3-13.9,13.9
		c4.6,6.3,9.3,12.6,13.9,19c0.5,1,0.4,1.8-0.4,2.7c-1.1,0.6-2.1,0.4-2.9-0.6c-4.4-6.1-8.8-12.2-13.4-18.1c-1.5,1.3-2.9,2.7-4.2,4.1
		c-0.1,4.5-0.2,9-0.2,13.5c-0.9,1.5-2.1,1.7-3.4,0.7c-0.4-12.4-0.5-24.8-0.2-37.2C213.5,44.1,213.7,43.8,213.9,43.4z"/>
</g>
<g id="svg_15_1_">
	<path id="svg_16_1_" vector-effect="non-scaling-stroke" class="st0" d="M250.5,43.4c1.3-0.3,2.2,0.1,2.9,1.1
		c0.2,12.1,0.2,24.2,0,36.3c-0.7,1.3-1.7,1.7-3.1,1c-0.3-0.2-0.5-0.5-0.6-0.8c-0.2-12.2-0.2-24.5,0-36.7
		C250,44.1,250.3,43.8,250.5,43.4z"/>
</g>
<g id="svg_17_1_">
	<path id="svg_18_1_" vector-effect="non-scaling-stroke" class="st0" d="M268.3,43.4c1.4-0.3,2.3,0.1,2.9,1.4
		c0.1,11.2,0.2,22.5,0.1,33.8c6.7,0,13.3,0,20,0.1c1.4,0.6,1.7,1.5,1,2.9c-0.3,0.2-0.7,0.4-1,0.6c-7.6,0.2-15.2,0.2-22.7,0
		c-0.3-0.1-0.6-0.3-0.8-0.6c-0.4-12.4-0.5-24.8-0.2-37.2C267.8,44.1,268.1,43.8,268.3,43.4z"/>
</g>
<g id="svg_19_1_">
	<path id="svg_20_1_" vector-effect="non-scaling-stroke" class="st0" d="M303.7,43.4c1.4-0.3,2.3,0.1,2.9,1.4
		c0.1,11.2,0.2,22.5,0.1,33.8c6.7,0,13.3,0,20,0.1c1.4,0.6,1.7,1.5,1,2.9c-0.3,0.2-0.7,0.4-1,0.6c-7.6,0.2-15.2,0.2-22.7,0
		c-0.3-0.1-0.6-0.3-0.8-0.6c-0.4-12.4-0.5-24.8-0.2-37.2C303.3,44.1,303.5,43.8,303.7,43.4z"/>
</g>
<g>
	<path class="st0" d="M154.3,43.3c-3.8-0.1-7.6-0.2-11.5-0.1c-0.4,0.3-0.9,0.7-1.3,1.1c-0.2,12.2-0.2,24.5,0,36.7
		c0.1,0.3,0.3,0.6,0.6,0.8c1.4,0.7,2.4,0.3,3.1-1c0.1-4.1,0.2-8.3,0.1-12.4c3.3,0,6.6,0,9.9-0.1c5.9-1,9.4-4.5,10.5-10.5
		C166.3,49.5,162.6,44.7,154.3,43.3z M154.5,64.6c-3,0.1-6.1,0.2-9.2,0.1c0-5.9,0-11.8,0-17.7c3.2,0,6.4,0,9.7,0.1
		c4.4,1.1,6.8,3.9,7.1,8.5C161.9,60.7,159.4,63.6,154.5,64.6z"/>
</g>
<line class="st1" x1="96.6" y1="34.5" x2="363" y2="34.5"/>
<g>
	<path class="st0" d="M165.1,101c0,0.4,0,0.7,0,1.1c0,5.9,0,11.8,0,17.7c0,0.3,0.1,0.7-0.1,1c-0.3,0.4-0.7,0.9-1.1,0.9
		c-0.4,0-0.9-0.4-1.2-0.8c-0.2-0.2-0.1-0.6-0.1-0.9c0-7.6,0-15.1,0-22.7c0-0.5,0.2-1,0.4-1.3c0.6-0.7,1.5-0.5,2.1,0.5
		c3.2,4.4,6.4,8.7,9.6,13.1c1.5,2,3,4.1,4.5,6.1c0.2,0.2,0.3,0.4,0.7,0.8c0-0.6,0-1,0-1.3c0-5.9,0-11.7,0-17.6c0-0.3-0.1-0.8,0.1-1
		c0.3-0.4,0.7-0.9,1.2-1c0.4,0,0.9,0.5,1.2,0.9c0.2,0.2,0.1,0.6,0.1,1c0,7.4,0,14.8,0,22.3c0,0.1,0,0.2,0,0.3c0,0.7-0.1,1.3-0.9,1.5
		c-0.7,0.2-1.3-0.1-1.7-0.7c-2.1-2.8-4.1-5.6-6.2-8.5c-2.8-3.8-5.6-7.7-8.4-11.5C165.3,101,165.2,101,165.1,101z"/>
	<path class="st0" d="M328.5,116.2c0-0.3,0-0.7,0-1c0-5.8,0-11.5,0-17.3c0-0.3,0-0.7,0-1c0.1-0.8,0.5-1.3,1.2-1.2
		c0.8,0,1.2,0.5,1.3,1.2c0,0.2,0,0.4,0,0.6c0,7.5,0,14.9,0,22.4c0,0.1,0,0.2,0,0.3c0,0.7-0.2,1.3-0.9,1.5c-0.7,0.2-1.2-0.1-1.6-0.7
		c-2.1-2.9-4.2-5.7-6.3-8.6c-2.6-3.5-5.1-7-7.7-10.5c-0.2-0.3-0.4-0.6-0.8-1.1c0,0.6-0.1,0.9-0.1,1.3c0,5.8,0,11.7,0,17.5
		c0,0.4,0,0.7-0.1,1.1c-0.1,0.7-0.6,1.1-1.3,1c-0.4-0.1-0.8-0.6-1.2-1c-0.1-0.2-0.1-0.6-0.1-0.9c0-7.4,0-14.8,0-22.3
		c0-0.1,0-0.3,0-0.4c0.3-0.5,0.4-1.1,0.9-1.4c0.6-0.4,1.2,0,1.6,0.6c1.6,2.2,3.2,4.4,4.8,6.5c3.1,4.2,6.1,8.4,9.2,12.5
		c0.2,0.3,0.5,0.6,0.7,0.9C328.4,116.3,328.4,116.2,328.5,116.2z"/>
	<path class="st0" d="M140.1,122.3c-7.5,0-13.5-5.9-13.5-13.3c0-7.4,6.2-13.5,13.6-13.4c7.5,0.1,13.5,6.1,13.5,13.4
		C153.7,116.3,147.6,122.3,140.1,122.3z M129.2,108.9c0,6.1,4.9,11.1,10.9,11.1c6,0,10.9-4.9,10.9-11c0-6.1-4.9-11.1-10.9-11.1
		C134.1,97.9,129.3,102.8,129.2,108.9z"/>
	<path class="st0" d="M360.4,110.1c-1.7,0-3.3,0-4.9,0c-0.9,0-1.8,0-2.7,0c-0.7,0-1.2-0.4-1.2-1.2c0-0.8,0.5-1.1,1.2-1.1
		c0.7,0,1.3,0,2,0c2.2,0,4.4,0,6.5,0c1.2,0,1.6,0.4,1.6,1.5c0,2.5,0,5,0,7.5c0,0.5-0.3,1.1-0.6,1.5c-5.3,5.6-14.5,5.3-19.7-0.6
		c-5.1-5.7-4.2-14.6,1.9-19.3c5.2-4,12.4-3.7,17.3,0.7c0.1,0.1,0.3,0.2,0.4,0.3c0.5,0.6,0.7,1.2,0.1,1.7c-0.5,0.5-1.1,0.5-1.7,0
		c-1.6-1.5-3.5-2.6-5.7-3c-6.2-1.2-12,2.9-13,9.3c-0.6,4.4,1.5,8.9,5.3,11.1c3.8,2.2,8.6,1.9,12.2-0.8c0.7-0.5,1-1.1,1-2
		C360.4,113.9,360.4,112.1,360.4,110.1z"/>
	<path class="st0" d="M218.7,104.9c0-2.5,0-5.1,0-7.6c0-1.1,0.5-1.7,1.3-1.7c0.8,0,1.3,0.6,1.3,1.7c0,5,0,10,0,14.9
		c0,3.4,2.1,6.2,5.1,7.1c4.7,1.5,9.5-2,9.6-7c0.1-4.9,0-9.8,0-14.7c0-0.3-0.1-0.7,0-0.9c0.3-0.4,0.8-1,1.2-1.1c0.4,0,0.9,0.6,1.3,1
		c0.1,0.1,0.1,0.4,0.1,0.7c0,4.9,0,9.8,0,14.7c-0.1,5.8-4.6,10.1-10.4,9.9c-5-0.2-9.2-4.3-9.4-9.4
		C218.7,110,218.7,107.4,218.7,104.9C218.7,104.9,218.7,104.9,218.7,104.9z"/>
	<path class="st0" d="M110.2,122.3c-7.5-0.1-13.5-6-13.6-13.3c0-7.4,6.1-13.4,13.6-13.4c3.5,0,6.5,1.2,9.1,3.6c0.8,0.7,1,1.4,0.5,2
		c-0.5,0.5-1.2,0.5-2-0.2c-2.3-2.1-5-3.1-8.1-3c-5.6,0.2-10.1,4.8-10.4,10.7c-0.3,5.5,3.8,10.5,9.2,11.2c3.4,0.5,6.5-0.5,9.1-2.7
		c0.1-0.1,0.2-0.2,0.4-0.3c0.6-0.5,1.2-0.6,1.8,0c0.5,0.6,0.3,1.2-0.2,1.7c-2,1.8-4.2,3-6.9,3.5C111.8,122.2,111,122.2,110.2,122.3z
		"/>
	<path class="st0" d="M200.7,122.3c-2.9,0-5.6-0.8-8-2.6c-0.8-0.6-1-1.2-0.5-1.8c0.6-0.7,1.2-0.6,1.9-0.1c2.5,1.8,5.2,2.5,8.2,2
		c3.2-0.5,4.9-2.8,4.5-5.9c-0.2-1.5-1-2.6-2.3-3.2c-1.3-0.6-2.7-0.9-4-1.3c-1.4-0.4-2.9-0.7-4.3-1.2c-4.7-1.7-4.5-7.5-2.2-9.8
		c1.8-1.9,4-2.7,6.6-2.8c2.6-0.1,5,0.6,7.2,1.9c0.7,0.4,1.2,0.9,0.8,1.8c-0.3,0.7-1,0.8-2,0.2c-2.4-1.4-4.9-2.1-7.7-1.4
		c-0.9,0.2-1.8,0.7-2.5,1.3c-2.3,1.9-1.8,5.5,1,6.7c1.4,0.6,3,0.9,4.5,1.3c1,0.3,2.1,0.6,3.1,0.9c5.6,1.8,5.5,8.9,2.3,11.7
		C205.6,121.4,203.4,122.3,200.7,122.3z"/>
	<path class="st0" d="M282,97.9c0,0.5,0,0.9,0,1.3c0,6.7,0,13.4,0,20.1c0,0.3,0,0.7,0,1c-0.1,0.7-0.5,1.1-1.2,1.1
		c-0.7,0-1.2-0.4-1.3-1.1c-0.1-0.3,0-0.7,0-1c0-6.7,0-13.4,0-20.1c0-0.4,0-0.8,0-1.3c-1.9,0-3.7,0-5.4,0c-0.7,0-1.3,0-2,0
		c-0.7,0-1.2-0.4-1.2-1.2c0-0.7,0.5-1,1.1-1.1c0.1,0,0.3,0,0.4,0c5.5,0,11,0,16.5,0c0.1,0,0.2,0,0.3,0c0.7,0,1.3,0.3,1.3,1.2
		c0,0.8-0.6,1.1-1.3,1.1c-2,0-4,0-5.9,0C283,97.9,282.6,97.9,282,97.9z"/>
	<path class="st0" d="M252.1,119c0.5,0,0.9,0,1.3,0c3.9,0,7.7,0,11.6,0c0.3,0,0.7,0,1,0c0.7,0.1,1.2,0.5,1,1.2
		c-0.1,0.4-0.7,0.8-1.1,1.1c-0.1,0.1-0.4,0-0.6,0c-4.7,0-9.4,0-14,0c-1.4,0-1.7-0.3-1.7-1.8c0-7.4,0-14.8,0-22.2
		c0-0.3,0-0.6,0.1-0.9c0.2-0.7,0.6-1.1,1.3-0.9c0.4,0.1,0.8,0.6,1.1,1c0.2,0.2,0.1,0.6,0.1,1c0,6.7,0,13.5,0,20.2
		C252.1,118.2,252.1,118.5,252.1,119z"/>
	<path class="st0" d="M300.6,108.7c0,3.8,0,7.5,0,11.3c0,0.5-0.3,1.2-0.7,1.5c-0.6,0.5-1.6,0.1-1.8-0.8c-0.1-0.3-0.1-0.7-0.1-1
		c0-7.4,0-14.8,0-22.2c0-0.2,0-0.3,0-0.5c0.1-0.9,0.6-1.5,1.3-1.4c0.8,0.1,1.2,0.6,1.2,1.4c0,2.8,0,5.6,0,8.4
		C300.6,106.5,300.6,107.6,300.6,108.7z"/>
</g>
<line class="st1" x1="96.6" y1="131.4" x2="363" y2="131.4"/>
</svg>
